<svg width="42" height="42" viewBox="0 0 42 42" fill="none" xmlns="http://www.w3.org/2000/svg">
<circle cx="21" cy="21" r="21" fill="#DAD9F5"/>
<path fill-rule="evenodd" clip-rule="evenodd" d="M21.0001 8.66602C27.8107 8.66602 33.3334 14.1873 33.3334 20.9993C33.3334 27.81 27.8107 33.3327 21.0001 33.3327C14.1881 33.3327 8.66675 27.81 8.66675 20.9993C8.66675 14.1873 14.1881 8.66602 21.0001 8.66602Z" fill="#44408A"/>
<path d="M23 17H24C24.2652 17 24.5196 17.1054 24.7071 17.2929C24.8946 17.4804 25 17.7348 25 18V25C25 25.2652 24.8946 25.5196 24.7071 25.7071C24.5196 25.8946 24.2652 26 24 26H18C17.7348 26 17.4804 25.8946 17.2929 25.7071C17.1054 25.5196 17 25.2652 17 25V18C17 17.7348 17.1054 17.4804 17.2929 17.2929C17.4804 17.1054 17.7348 17 18 17H19" stroke="white" stroke-width="1.5" stroke-linecap="round" stroke-linejoin="round"/>
<path d="M22.5 16H19.5C19.2239 16 19 16.2239 19 16.5V17.5C19 17.7761 19.2239 18 19.5 18H22.5C22.7761 18 23 17.7761 23 17.5V16.5C23 16.2239 22.7761 16 22.5 16Z" stroke="white" stroke-width="1.5" stroke-linecap="round" stroke-linejoin="round"/>
</svg>
