<svg width="42" height="42" viewBox="0 0 42 42" fill="none" xmlns="http://www.w3.org/2000/svg">
<circle cx="21" cy="21" r="21" fill="#FFECDC"/>
<path fill-rule="evenodd" clip-rule="evenodd" d="M21.0001 8.66602C27.8107 8.66602 33.3334 14.1873 33.3334 20.9993C33.3334 27.81 27.8107 33.3327 21.0001 33.3327C14.1881 33.3327 8.66675 27.81 8.66675 20.9993C8.66675 14.1873 14.1881 8.66602 21.0001 8.66602Z" fill="#F18524"/>
<path d="M26 24H20" stroke="white" stroke-width="1.5" stroke-linecap="round" stroke-linejoin="round"/>
<path d="M20 18H26" stroke="white" stroke-width="1.5" stroke-linecap="round" stroke-linejoin="round"/>
<path fill-rule="evenodd" clip-rule="evenodd" d="M17 18C17 17.7239 16.7761 17.5 16.5 17.5C16.2239 17.5 16 17.7239 16 18C16 18.2761 16.2239 18.5 16.5 18.5C16.7761 18.5 17 18.2761 17 18Z" stroke="white" stroke-width="1.5" stroke-linecap="round" stroke-linejoin="round"/>
<path fill-rule="evenodd" clip-rule="evenodd" d="M17 24C17 23.7239 16.7761 23.5 16.5 23.5C16.2239 23.5 16 23.7239 16 24C16 24.2761 16.2239 24.5 16.5 24.5C16.7761 24.5 17 24.2761 17 24Z" stroke="white" stroke-width="1.5" stroke-linecap="round" stroke-linejoin="round"/>
</svg>
