<svg width="42" height="42" viewBox="0 0 42 42" fill="none" xmlns="http://www.w3.org/2000/svg">
<circle cx="21" cy="21" r="21" fill="#C7F8E9"/>
<path fill-rule="evenodd" clip-rule="evenodd" d="M21.0001 8.66602C27.8107 8.66602 33.3334 14.1873 33.3334 20.9993C33.3334 27.81 27.8107 33.3327 21.0001 33.3327C14.1881 33.3327 8.66675 27.81 8.66675 20.9993C8.66675 14.1873 14.1881 8.66602 21.0001 8.66602Z" fill="#1AC491"/>
<path d="M23.182 22.7221H18.734" stroke="white" stroke-width="1.5" stroke-linecap="round" stroke-linejoin="round"/>
<path d="M20.4313 19.1479H18.734" stroke="white" stroke-width="1.5" stroke-linecap="round" stroke-linejoin="round"/>
<path fill-rule="evenodd" clip-rule="evenodd" d="M23.3005 15C23.3005 15 18.571 15.0025 18.5636 15.0025C16.8633 15.0129 15.8104 16.1317 15.8104 17.8382V23.5035C15.8104 25.2186 16.8713 26.3417 18.5864 26.3417C18.5864 26.3417 23.3153 26.3398 23.3233 26.3398C25.0236 26.3293 26.0771 25.21 26.0771 23.5035V17.8382C26.0771 16.1231 25.0156 15 23.3005 15Z" stroke="white" stroke-width="1.5" stroke-linecap="round" stroke-linejoin="round"/>
</svg>
